<svg id="Capa_1" data-name="Capa 1" xmlns="http://www.w3.org/2000/svg" viewBox="0 0 915.1 676.39"><defs><style>.cls-1{fill:#bcbec0;}.cls-2{fill:#305399;}.cls-3{fill:#4b3bac;}.cls-4{fill:#b97262;}.cls-5{fill:#3b455a;}.cls-6{fill:#efbfa5;}.cls-7{fill:#251882;}.cls-8{fill:#7db5db;}.cls-9{fill:#2f3849;}.cls-10{fill:#a07cec;}.cls-11{fill:#9a4e95;}.cls-12{fill:#f7f7f7;}.cls-13{fill:#71307a;}.cls-14{fill:#707f78;}.cls-15{fill:#765ccd;}.cls-16{fill:#292949;}.cls-17{fill:#da4b5c;}.cls-18{fill:#fff;}.cls-19{fill:#d3e5ef;}</style></defs><title>mailbox_header</title><g id="object"><polygon class="cls-1" points="903.9 464.2 899.4 548.9 890.9 663.3 878.1 664.2 862.7 560.3 841.3 472.5 903.9 464.2"/><polygon class="cls-2" points="878.6 669.5 892.8 675.4 899.2 668 891.9 661.7 878.1 662.6 878.6 669.5"/><polygon class="cls-1" points="806.4 457.9 803.7 508.7 811.9 659.8 824.7 660.5 843.7 561.4 860.6 452.7 806.4 457.9"/><polygon class="cls-2" points="824.3 662.9 810.2 669.1 803.7 664.8 810.9 658.3 824.7 659 824.3 662.9"/><path class="cls-3" d="M951.3,368.9l-39.9-2.6s-22,3.3-34.8,56.3c-7.1,29.5-7.8,75.6-6.9,110.7,1.1,5,7.5,26.6,30.4,22,39.3-8,60.1-15.3,77.4-12.8,14.8,2.6,12.7-17.6,10.5-32.9l-7.8-47.5Z" transform="translate(-75.7 -67.1)"/><path class="cls-4" d="M941.6,319.8c-10.1-1.8-20.5-3.3-30.4-.9-2.2.5-4.5,1.4-5.6,3.3a10.43,10.43,0,0,0-.8,2.5c-2.1,9.5-4.8,23.6,1.8,32a15.34,15.34,0,0,0,4.6,3.8,22.32,22.32,0,0,0,7.5,2.6,32.2,32.2,0,0,1-2,6.9c2.4,3.4,13.1,3.3,15-.1v-8.6a27.06,27.06,0,0,0,3.7-2.1,24.23,24.23,0,0,0,8.8-13.1c1.7-5.6,4.1-11,5.6-16.8.5-2.1,1-4.5-.2-6.3s-3.8-2.5-6-2.9A6.45,6.45,0,0,1,941.6,319.8Z" transform="translate(-75.7 -67.1)"/><path class="cls-5" d="M908.5,326.6a30.59,30.59,0,0,1,16.8-4.9c14.1.4,19.7,10.6,21,23.4,3.7-5.1,10.7-11.6,10.9-17.9.1-5.2-.9-12.2-4-16.6-2.9-4.1-9.9-6.1-14.2-8.3-4-2.1-8-4.3-12-6.4a8.25,8.25,0,0,0-2.6-1,9.46,9.46,0,0,0-3.3.5c-9.1,2.8-18.2,5.5-27.3,8.3-1.7.5-3.7,1.3-4.3,3a5.34,5.34,0,0,0,.2,3.3c1.2,4.7,3.5,9.5,4.1,14.4.7,2.8,3,17.1,7.9,15.3,1.4-2.5,1.5-5.4,2.5-8A11.72,11.72,0,0,1,908.5,326.6Z" transform="translate(-75.7 -67.1)"/><polygon class="cls-3" points="835.7 299.2 821.2 304.3 770 362.6 767.5 381.3 794.9 422.5 801.2 406.7 789.1 375.9 805.8 363.1 826.6 310.5 835.7 299.2"/><polygon class="cls-3" points="867.3 305.6 893.4 275 883.7 195.3 895.4 189.6 915.1 270 910.9 290.4 882.1 333.8 867.3 305.6"/><polygon class="cls-4" points="892.9 190.8 892.6 183.5 883.7 172.7 878.2 178.1 882.4 187.8 880.1 191.3 883.7 195.3 892.9 190.8"/><polygon class="cls-6" points="183.6 286.9 196.7 277.7 194.9 269.3 181.5 273.9 175.1 278.1 175.1 282.8 183.6 286.9"/><g id="_Grupo_" data-name="&lt;Grupo&gt;"><g id="_Grupo_2" data-name="&lt;Grupo&gt;"><g id="_Grupo_3" data-name="&lt;Grupo&gt;"><g id="_Grupo_4" data-name="&lt;Grupo&gt;"><path class="cls-2" d="M134.3,708.9c-1.4-1.5-2.9-2.3-4.7-2a5.39,5.39,0,0,0-4,3,9.83,9.83,0,0,0-.7,3.4c-.5,6-.5,20.3,7.5,22.3,3.4.9,6.1-4.5,7-7.5C140.8,723.5,138.8,713.9,134.3,708.9Z" transform="translate(-75.7 -67.1)"/></g><g id="_Grupo_5" data-name="&lt;Grupo&gt;"><path class="cls-6" d="M137.1,618.3l-.4,36.6c.5,16.3-2.1,32.6-1.6,48.9.1,3.7,1.1,7.7.1,11.4s-3.9,4.3-6.9,2.4c-4.1-2.5-3.4-8.2-4.1-12.4-1.9-11.5-4-23-6-34.5-.9-5.6,1-13.5.6-19.3l-5.9-30.7Z" transform="translate(-75.7 -67.1)"/></g></g><g id="_Grupo_6" data-name="&lt;Grupo&gt;"><polygon class="cls-7" points="19.6 492.1 35.5 562.8 38.9 629.7 64.1 629.1 71 442.1 22 443 19.6 492.1"/></g><g id="_Grupo_7" data-name="&lt;Grupo&gt;"><g id="_Grupo_8" data-name="&lt;Grupo&gt;"><g id="_Grupo_9" data-name="&lt;Grupo&gt;"><path class="cls-2" d="M170.4,704.6a5,5,0,0,0-8.6,1.4,10.24,10.24,0,0,0-.5,3.5c-.2,6,.4,20.3,8.5,21.9,3.4.7,6.1-1.9,6.8-5C177.7,721.8,175.1,709.3,170.4,704.6Z" transform="translate(-75.7 -67.1)"/></g><g id="_Grupo_10" data-name="&lt;Grupo&gt;"><path class="cls-6" d="M157.1,623.5l2.1,36.6c.2,10.2,1.5,20.2,2.6,30.3,1,9.4-.5,19.1,4.4,27.7,1.5,2.7,4.6,4.5,6.8,1.2,1.7-2.5.7-6.7,1-9.5,1.3-11.6,2.9-23.1,4.3-34.7.7-5.7-1.6-13.5-1.5-19.2l4.5-30.9Z" transform="translate(-75.7 -67.1)"/></g></g><g id="_Grupo_11" data-name="&lt;Grupo&gt;"><polygon class="cls-7" points="113.4 487.7 115.4 556.4 104.6 625.9 78.9 626.7 80.1 551.5 66.5 489.1 61.9 448.3 102.7 443.5 113.4 487.7"/></g></g><g id="_Grupo_12" data-name="&lt;Grupo&gt;"><polygon class="cls-1" points="81.1 302.9 37.1 301.8 11.7 349.2 20.7 393.6 22.3 446.7 85 447.5 105.6 444.2 100.2 387.4 103 318.2 81.1 302.9"/></g><g id="_Grupo_13" data-name="&lt;Grupo&gt;"><polygon class="cls-1" points="35.7 305.1 0 359.4 5.4 389.7 60.6 427.9 71 418.9 34.1 372.2 35.5 342.7 35.7 305.1"/></g><g id="_Grupo_14" data-name="&lt;Grupo&gt;"><polygon class="cls-1" points="78.4 333.5 120.6 348.8 145.1 342.8 187.3 287.4 172.6 281 128.2 319 88.1 307 78.4 333.5"/></g></g><g id="_Grupo_15" data-name="&lt;Grupo&gt;"><polygon class="cls-8" points="50.1 302.6 63.8 321.9 70.2 321.4 80.9 301.8 50.1 302.6"/></g><g id="_Grupo_16" data-name="&lt;Grupo&gt;"><polygon class="cls-6" points="60.9 421.2 60.7 428.6 73.8 433.3 81.3 427.6 81.3 419 74.1 418.6 73.8 416.7 71.4 415.2 60.9 421.2"/></g></g><path class="cls-6" d="M141.9,331c2.9-2.5,6.1-3,9.7-3,1.7,0,2.3.4,3.2.3a4.82,4.82,0,0,0,1.5-.7c1.3-.8,2.5-2.9,3.1-4.7,3.4,2.1,5.8,6,6.5,11.8.7,6.4.7,13.1-1.5,19.5s-6.8,12.4-12.9,14.7c-.4.1-.7.3-1.1.4a17.12,17.12,0,0,1-7.3.7l-7.6-3.6c-.4-.3-.7-.7-1.1-1C132,354.6,134.7,337.4,141.9,331Z" transform="translate(-75.7 -67.1)"/><path class="cls-9" d="M78.6,463.8a16.79,16.79,0,0,0,4.7,8.9c.2-1.2.4-2.3.6-3.5-.2,1.2-.4,2.3-.6,3.5a20.55,20.55,0,0,0,5.3,4c5,2.7,10.8,3.5,16.4,3.5,4.5,0,9.1-.5,13.6.4s8.8,3.9,9.9,8.2c.6,2.4.4,5.5,2.5,6.8a6.51,6.51,0,0,0,3.4.7c3.6.1,7.7,0,10.1-2.6,3.7-4.1,1.5-12.4,6.6-14.7,1.5-.7,3.2-.6,4.8-.9,6.8-1.2,10.1-8.9,9.5-15.9a15.69,15.69,0,0,0-.9-4.3c-2.8-7.9-9.3-13.7-14.3-20.4-9.6-13.1-16.2-30.7-10.2-46.2a38.9,38.9,0,0,0,1.6-4.4,10.86,10.86,0,0,0,.4-2.5c.1-4.6-3.4-8.4-5.6-12.5l-.6-1.2a16.94,16.94,0,0,1-1.1-3.4c0-.2-.1-.4-.1-.6-6.8-6.8-9.6-19.5-5.1-29,.3-.5.5-1.1.8-1.6a8,8,0,0,0-.8,1.6c-4.5,9.5-1.8,22.1,5.1,29-2.5-10.8.2-28,7.5-34.4,2.9-2.5,6.1-3,9.7-3,1.7,0,2.3.4,3.2.3a4.82,4.82,0,0,0,1.5-.7c1.3-.8,2.5-2.9,3.1-4.7,3.4,2.1,5.8,6,6.5,11.8.7,6.4.7,13.1-1.5,19.5s-6.8,12.4-12.9,14.7a10.37,10.37,0,0,0-1,.4,8.35,8.35,0,0,0,1.2,1.6c3.3,3.6,8.6,4.5,13.5,5.1a3.67,3.67,0,0,0,1.8-.1,2.59,2.59,0,0,0,1.4-2.4,10,10,0,0,0-.6-2.9c-2.8-9.9,2.2-21.2,3-31.1s-1.2-20.8-9.2-27.5a22.56,22.56,0,0,0-3.9,1.5c-.1-.2-.3-.3-.4-.5-11.5-13.9-27.9-2-36.6,8.6-7.2,8.7-13.3,18.8-16,29.8-2.6,10.4-3.4,25.6-2.4,36.2.6,6.2,3.1,12.3,4.4,18.3a27,27,0,0,1,.4,11.3c-1.7,7.9-7.9,13.7-14,19.1-.6,1.4-1.1,2.9-1.7,4.3s-1.1,2.9-1.6,4.4c-.3,1-.7,2-1,3,.3-1,.7-2,1-3,.5-1.5,1.1-3,1.6-4.4s1.1-2.9,1.7-4.3c-.8.8-1.7,1.5-2.5,2.3C83.7,446.5,77.1,454.8,78.6,463.8Zm60.7-137.3a25.43,25.43,0,0,1,2.8-1.6C141.2,325.4,140.2,325.9,139.3,326.5Z" transform="translate(-75.7 -67.1)"/><rect class="cls-10" x="688" y="12.8" width="185.3" height="144.6"/><path class="cls-11" d="M755.1,156.7l.9,121.9,177.4-1.3c13.4-.1,24.2-11.8,24.1-26.1l-.7-95.9L856.4,218.9Z" transform="translate(-75.7 -67.1)"/><rect class="cls-12" x="721.5" y="39.7" width="137.2" height="3"/><rect class="cls-12" x="702.6" y="62.7" width="156.1" height="3.1"/><rect class="cls-12" x="702.6" y="85.8" width="156.1" height="3.1"/><polygon class="cls-13" points="184.5 178.6 159 231.9 158.9 156.5 409.6 0 184.5 178.6"/><polygon class="cls-13" points="159 157.1 309.5 79 183.8 180.1 159.2 231 159 157.1"/><polygon class="cls-5" points="159 231.9 183.7 179.5 409.1 0.8 159 231.9"/><polygon class="cls-14" points="409.1 0.8 409.6 0 406.7 2.3 409.1 0.8"/><polygon class="cls-10" points="409.1 0.8 406.7 2.3 183.8 179.1 183.5 179.3 255.4 243.8 409.1 0.8"/><polygon class="cls-10" points="409.6 0 97.2 101.8 158.5 156.8 406.7 2.3 409.6 0"/><polygon class="cls-2" points="285 655 284 662.8 298.6 669.6 307.4 665.8 300.6 657 286 647.1 285 655"/><polygon class="cls-1" points="284.5 652.3 295.7 552.7 282.2 441.2 285.2 417.5 345.8 415.2 348 453.8 337.8 552.9 299.6 657.4 284.5 652.3"/><polygon class="cls-10" points="351.5 305 381.9 313.3 417.2 375.8 400.5 391.2 377 363.4 351.5 305"/><polygon class="cls-1" points="390.2 426.4 390.4 526.9 370.2 656.3 355.6 656.1 347.6 536.5 328.9 416.7 390.2 426.4"/><polygon class="cls-2" points="355.6 662.3 371.3 667.3 379.2 662.5 371.5 654.5 355.7 654.4 355.6 662.3"/><path class="cls-10" d="M351.6,527.7c.1-4.4.4-8,.4-9.3.3-11.7,1.4-23.3,2.8-34.9,1.3-10.4,3-36.2,4.7-46.5,1.5-8.5,6.6-29.8,10.3-37.7,9.2-19.7,6.4-21.5,46.8-27.3,17.7-2.6,21.9,8.5,36.4,21.2,1.4,1.3,1.3,8.7,1.7,10.7.6,3.5,1.2,6.9,1.9,10.4.6,2.7,1.2,5.4,1.9,8.1h0s12.2,55.3,20.2,67,24.6,28.2-3.1,38.2a97.26,97.26,0,0,1-15,3.9s-22.7-2.5-34.4-2.4a201.69,201.69,0,0,0-32.1,3c-7.1,1.2-14.3,2.9-20.6,6.2-6,3.2-10.4,7.8-16.5,11.1a3.2,3.2,0,0,1-1.9.5C351.5,549.2,351.3,536.8,351.6,527.7Z" transform="translate(-75.7 -67.1)"/><path class="cls-4" d="M416.7,377.4c-2,1-6.8,1.4-11.9-.6a2.72,2.72,0,0,1-1.7-2.5,69.7,69.7,0,0,1,.7-9.1c-3.8-1.3-8.1-3.3-8.8-7.2a11.53,11.53,0,0,1,.2-3.7c.9-5.1,1.8-10.2,2.7-15.4a12.71,12.71,0,0,1,1.6-5.1c1.7-2.7,5-3.8,8.1-4.4,7.9-1.4,16.6.3,22.7,5.5a12,12,0,0,1,3.8,5.1c1.1,3.1.3,6.5-.6,9.7-.8,2.9-1.5,5.9-2.3,8.8-.9,3.4-2.2,7.2-5.4,8.5-1.7.7-3.8.5-5.4,1.5C417.7,370.3,418.1,374.4,416.7,377.4Z" transform="translate(-75.7 -67.1)"/><path class="cls-5" d="M462.4,327.8a30.87,30.87,0,0,1,2.6-3.7c2-2.5,4.5-4.7,6.2-7.4s2.2-6.6.2-9.1a9.89,9.89,0,0,0-5.3-3.1,38.85,38.85,0,0,0-20.3-.4c-6.3,1.6-12,4.3-18.4,1.9-6-2.2-10.3-1.3-16.6.9-6.8,2.4-15.9,3-22,6.4a18.1,18.1,0,0,0-6.2,6.1,27.41,27.41,0,0,0-.1,28.8,36.25,36.25,0,0,0,4.2,5.3c3.2,3.5,7,7.7,11.4,9,.1-3.9-3.5-16.3-.5-19.6,4.8-5.1,15.6-3.3,21.6-2.1,6.5,1.4,12.3,6,18.7,7,4.6.7,10.5-1.6,14.5-4C457.3,341.1,459.6,332.5,462.4,327.8Z" transform="translate(-75.7 -67.1)"/><polygon class="cls-10" points="307.4 312.3 282.2 334.4 254.1 393.5 289.6 435.7 295.7 412.1 307.4 312.3"/><polygon class="cls-15" points="480.1 334.4 168.5 357.9 331.6 443.3 480.1 334.4"/><path class="cls-15" d="M234.5,432.1l15.1,200.7,292.1-22c22.1-1.7,38.6-22.2,36.8-45.8L566.6,407.1l-158.3,116Z" transform="translate(-75.7 -67.1)"/><path class="cls-16" d="M499.9,405.7a56.1,56.1,0,0,0,0,8.2,52.75,52.75,0,0,0,7.3,23.3l48.6-35.6Z" transform="translate(-75.7 -67.1)"/><path class="cls-16" d="M557.5,463.4a55.33,55.33,0,0,0,13.1-2.6l-4-53.6L513.7,446A53.83,53.83,0,0,0,557.5,463.4Z" transform="translate(-75.7 -67.1)"/><circle class="cls-17" cx="490.49" cy="335.1" r="53.7"/><polygon class="cls-18" points="501.7 364.5 489.1 365.2 486.6 323.8 478.8 324.3 478 311.7 498.5 310.5 501.7 364.5"/><g id="_Grupo_17" data-name="&lt;Grupo&gt;"><g id="_Grupo_18" data-name="&lt;Grupo&gt;"><g id="_Grupo_19" data-name="&lt;Grupo&gt;"><g id="_Grupo_20" data-name="&lt;Grupo&gt;"><path class="cls-2" d="M755,716.6c1.4-1.5,2.9-2.3,4.7-2a5.39,5.39,0,0,1,4,3,9.83,9.83,0,0,1,.7,3.4c-.1-1.8,1.1,20-7.5,22.3-3.4.9-6.1-1.5-7-4.5C748.5,734.2,750.5,721.6,755,716.6Z" transform="translate(-75.7 -67.1)"/></g><g id="_Grupo_21" data-name="&lt;Grupo&gt;"><path class="cls-6" d="M752.2,626.3l.4,36.5c-.5,16.2,2,32.5,1.6,48.8-.1,3.7-1.1,7.7-.1,11.4s3.9,4.3,6.9,2.4c4-2.5,3.4-8.2,4.1-12.4,1.8-11.5,4-22.9,6-34.4.9-5.6-1-13.5-.6-19.2l5.9-30.6Z" transform="translate(-75.7 -67.1)"/></g></g><g id="_Grupo_22" data-name="&lt;Grupo&gt;"><polygon class="cls-3" points="718.2 500.1 702.3 570.8 698.9 637.5 673.7 636.9 666.9 450.3 715.7 451.2 718.2 500.1"/></g><g id="_Grupo_23" data-name="&lt;Grupo&gt;"><g id="_Grupo_24" data-name="&lt;Grupo&gt;"><g id="_Grupo_25" data-name="&lt;Grupo&gt;"><path class="cls-2" d="M718.9,715.3a5.06,5.06,0,0,1,4.8-1.7,5.36,5.36,0,0,1,3.8,3.2,10,10,0,0,1,.5,3.4c-.1-1.9-.1,20.2-8.5,21.8-3.4.7-6-1.9-6.8-5C711.7,732.5,714.2,720,718.9,715.3Z" transform="translate(-75.7 -67.1)"/></g><g id="_Grupo_26" data-name="&lt;Grupo&gt;"><path class="cls-6" d="M732.2,631.4l-2.1,36.5c-.2,10.1-1.5,20.2-2.6,30.3-1,9.4.5,19.1-4.3,27.6-1.5,2.7-4.6,4.4-6.8,1.2-1.7-2.5-.7-6.7-1-9.5-1.3-11.6-2.9-23.1-4.3-34.6-.7-5.7,1.6-13.5,1.5-19.2l-4.5-30.9Z" transform="translate(-75.7 -67.1)"/></g></g><g id="_Grupo_27" data-name="&lt;Grupo&gt;"><polygon class="cls-3" points="624.6 495.8 622.6 564.4 633.3 633.7 659 634.5 657.8 559.4 671.4 497.2 676 456.5 635.3 451.7 624.6 495.8"/></g></g><g id="_Grupo_28" data-name="&lt;Grupo&gt;"><polygon class="cls-19" points="656.8 311.4 700.7 310.3 726.1 357.6 717 401.9 715.4 454.9 652.9 455.7 632.3 452.4 637.8 395.8 634.7 320.1 656.8 311.4"/></g><g id="_Grupo_29" data-name="&lt;Grupo&gt;"><polygon class="cls-19" points="702.1 313.6 737.7 367.8 732.4 398 677.2 436.2 666.9 427.1 703.7 380.5 702.3 351.1 702.1 313.6"/></g><g id="_Grupo_30" data-name="&lt;Grupo&gt;"><polygon class="cls-19" points="654.6 340 631.8 385.7 607.2 390.6 545.8 363.8 556.4 351.8 612.3 362 634.7 320.1 654.6 340"/></g><g id="_Grupo_31" data-name="&lt;Grupo&gt;"><g id="_Grupo_32" data-name="&lt;Grupo&gt;"><path class="cls-6" d="M735.3,341.7c6.6-19.2,32-12,37.2,5.1,3.4,11.2-5.2,25.6-16.8,28.9a4.87,4.87,0,0,0-.1,1.2,30.72,30.72,0,0,1-.5,5.3c-.1.7-10.2-1.3-11.3-1.5a1.6,1.6,0,0,1-1-.5c-.4-.6.3-2.5.3-3.2s.2-1.7.3-2.5c-5.7-2.8-9.3-8.7-10.3-14.8S733.3,347.5,735.3,341.7Z" transform="translate(-75.7 -67.1)"/></g><g id="_Grupo_33" data-name="&lt;Grupo&gt;"><g id="_Grupo_34" data-name="&lt;Grupo&gt;"><path class="cls-9" d="M751.8,324.4a9.86,9.86,0,0,1,2.3,5.2,9.2,9.2,0,0,1,.2,3.3c-.9,4.4-5.3,4.1-8.6,5.5a22.06,22.06,0,0,0-10,8.6c-3.6,5.8-2,13.2-.5,19.5.5,2.2,1.6,5.6-.2,7.6s-5.8,1.7-8,.7c-1.9-1-3.5-2.7-5.6-3.1s-5.3.6-6.3-1.4c-.3-.6-.3-1.3-.7-1.8-1.2-1.8-4.3.3-6.1-.9-1.1-.8-1.1-2.4-.7-3.7s1-2.6.7-3.9a14.68,14.68,0,0,0-1.5-3.1,6,6,0,0,1,.8-6.4c2.8-3.2,8.1-2.6,11.1-5.6,1.5-1.6,2.1-3.8,2.7-6s1.3-4.4,2.9-5.8c2-1.8,5-1.5,7-3.6,1.2-1.2,2-2.9,3.3-4,1.7-1.4,5.2-2.5,7.3-3.3A9.32,9.32,0,0,1,751.8,324.4Z" transform="translate(-75.7 -67.1)"/></g><g id="_Grupo_35" data-name="&lt;Grupo&gt;"><path class="cls-9" d="M767.9,355c.1,6.3-3,13.2-.1,18.7s10.3,6.6,16.5,6.9c1,0,14.2,1.2,14.3.9,1-4.4,2-8.9,4.3-12.8s6.2-7.1,10.6-7.3c-1.3-.2-1.9-1.8-1.8-3.1a18.55,18.55,0,0,1,1.2-3.8,8.88,8.88,0,0,0-2.3-8.9c-4.7-4.3-13.1-2.5-17.1-7.5-2.5-3.1-2.2-7.6-3.5-11.4-2.5-7.3-10.5-8.8-16.5-12.1-6.3-3.5-12.3-5.4-19.5-4.2-9,1.5-15.7,10.7-12.3,19.4,4.5,11.1,22.3,10.1,25.7,21.4A26.45,26.45,0,0,1,767.9,355Z" transform="translate(-75.7 -67.1)"/></g></g></g></g><g id="_Grupo_36" data-name="&lt;Grupo&gt;"><polygon class="cls-5" points="687.7 311.1 674.1 330.3 667.7 329.8 657 310.3 687.7 311.1"/></g></g><path class="cls-18" d="M694.4,522.8a3.63,3.63,0,0,1-2.8-1.2l-31-31.8-19.2,24.6a3.46,3.46,0,0,1-2.7,1.4,4.46,4.46,0,0,1-4-2.8L589.1,390.2a3.51,3.51,0,0,1,.9-3.9,3.23,3.23,0,0,1,2.7-1.3,4,4,0,0,1,1.5.3l121.6,48.6a4.14,4.14,0,0,1,2.7,3.3,4.08,4.08,0,0,1-1.7,3.8L692,459.4l30.9,31.7a4,4,0,0,1,0,5.6l-25.6,25a4.36,4.36,0,0,1-2.9,1.1Zm-34.2-42.9a3.85,3.85,0,0,1,2.9,1.2l31.4,32.2,19.9-19.4-31.3-32.1a3.77,3.77,0,0,1-1.1-3,4.56,4.56,0,0,1,1.8-3.1l22.6-16.8L599.7,396.2l40,107.7,17.7-22.6A3.37,3.37,0,0,1,660.2,479.9Z" transform="translate(-75.7 -67.1)"/><path class="cls-18" d="M724,490l-15-15.3-14.8-15.1,10.3-7.6,13-9.7a5.5,5.5,0,0,0,2.3-5.2,5.72,5.72,0,0,0-3.6-4.5L674.9,416l-65.3-26.1-8.9-3.6-6.1-2.4a4.77,4.77,0,0,0-2-.4,5.59,5.59,0,0,0-5,7.3l1.6,4.4,13.9,37.3,24.5,66,2.8,7.6,2.8,7.5a6,6,0,0,0,5.4,3.8,4.93,4.93,0,0,0,3.9-1.9l9.8-12.5,8.4-10.7,11.6,11.9,14,14.3,4.2,4.3a5.55,5.55,0,0,0,7.8,0l12.6-12.3,13-12.7A5.52,5.52,0,0,0,724,490Zm-2.2,5.6-25.6,25a2.41,2.41,0,0,1-1.8.7,2.34,2.34,0,0,1-1.7-.7c-1.4-1.4-2.8-2.9-4.2-4.3-9.3-9.6-18.7-19.1-28-28.7l-20.3,26a1.82,1.82,0,0,1-1.6.8,2.9,2.9,0,0,1-2.6-1.9c-1.9-5-3.7-10.1-5.6-15.1-8.2-22-16.3-44-24.5-66-5.2-13.9-10.3-27.8-15.5-41.7a1.93,1.93,0,0,1,.6-2.4,2,2,0,0,1,1.6-.9,2.92,2.92,0,0,1,.9.2c5,2,10,4,14.9,6q32.7,13,65.3,26.1c13.8,5.5,27.6,11,41.3,16.5a2.51,2.51,0,0,1,.6,4.5c-8.7,6.4-17.4,12.9-26,19.3l2.2,2.2c10,10.2,20,20.5,29.9,30.7A2.66,2.66,0,0,1,721.8,495.6Z" transform="translate(-75.7 -67.1)"/><path class="cls-18" d="M684.2,460.7a2.52,2.52,0,0,1,.5-3.9c8.3-6.1,16.5-12.3,24.8-18.4-3.5-1.4-7.1-2.8-10.6-4.2q-32.7-13.05-65.3-26.1c-12.1-4.9-24.3-9.7-36.4-14.6,1.2,3.4,2.5,6.7,3.7,10.1,8.2,22,16.3,44,24.5,66,4.6,12.5,9.3,24.9,13.9,37.4l19.3-24.7a2.06,2.06,0,0,1,1.7-.7,2.67,2.67,0,0,1,1.8.7c1.4,1.4,2.8,2.9,4.2,4.3,9.4,9.6,18.8,19.3,28.2,28.9,7.4-7.2,14.7-14.4,22.1-21.5-.8-.8-1.6-1.7-2.4-2.5C704.2,481.1,694.2,470.9,684.2,460.7Zm10.4,50.4-6.2-6.4-19.9-20.4-.6-.7-3.6-3.6a5.76,5.76,0,0,0-4-1.6,5,5,0,0,0-4,1.9l-9.7,12.4-6.4,8.1-4.8-12.9-7.2-19.4-24.5-66-1.4-3.7,30.2,12.1L665.2,424l32.7,13.1,5.4,2.2.2.1-7.9,5.8L683,454.6a5.73,5.73,0,0,0-2.4,4.2,5.1,5.1,0,0,0,1.6,4.2l15,15.3,15,15.3.3.3Z" transform="translate(-75.7 -67.1)"/><polygon class="cls-5" points="517.2 322 562.8 444.8 584.6 416.8 618.8 451.8 631.6 439.3 644.4 426.8 610.3 391.8 638.8 370.6 517.2 322"/><g id="_Grupo_37" data-name="&lt;Grupo&gt;"><polygon class="cls-6" points="654.7 431.9 654.9 439.3 641.9 444 634.4 438.3 634.4 429.7 641.6 429.3 641.8 427.4 644.2 425.9 654.7 431.9"/></g><polygon class="cls-4" points="259.2 354.9 266.5 345.1 281.5 342.2 289.6 350.2 275.3 365.1 259.2 354.9"/><polygon class="cls-4" points="378.4 340.7 385.8 330.8 400.8 327.9 408.9 336 394.6 350.8 378.4 340.7"/></g></svg>