<?xml version="1.0" encoding="utf-8"?>
<!-- Generator: Adobe Illustrator 22.0.0, SVG Export Plug-In . SVG Version: 6.00 Build 0)  -->
<svg version="1.1" id="_x36_cfd3656-476b-4330-9702-493a333f7de9"
	 xmlns="http://www.w3.org/2000/svg" xmlns:xlink="http://www.w3.org/1999/xlink" x="0px" y="0px" viewBox="0 0 55.3 39.8"
	 style="enable-background:new 0 0 55.3 39.8;" xml:space="preserve">
<style type="text/css">
	.st0{fill:url(#_x30_6b044f4-b19f-4af7-8e9f-16565c3b9659_1_);}
	.st1{fill:url(#_x32_7757c57-3efa-425b-b68f-2a99091ea45d_1_);}
</style>
<title>bg-intro-mobile</title>
<g id="a854c3a8-958a-4f55-86ef-aa43b52f7c26">
	<g id="adc70743-ebb7-49cc-86af-177cd8c352ad">
		<path id="bb7671b0-b11c-47d1-9177-edde52e7ed9d" d="M2,12.3l8,8c2.1,2.1,4.8,3.2,7.8,3.2h1.3c3,0,5.8,1.2,7.9,3.2l8.5,8.5
			c2.1,2.1,4.9,3.3,7.9,3.3h23.1c3.1,0,5.6-2.4,5.6-5.5c0-1.5-0.6-2.9-1.6-4l-5.9-5.9c-0.8-0.8-0.8-2.1,0-3c0,0,0,0,0,0l0.2-0.2
			c0.4-0.3,0.8-0.4,1.3-0.4c1.2,0,2.1-1,2-2.2c0-0.5-0.2-1-0.6-1.4l-12-12.1c-2.1-2.1-5-3.3-8-3.2H34.3c-2.7,0-5.3-1.1-7.2-3
			c-1.9-1.9-4.5-3-7.2-3H6.4c-2,0-3.7,1.7-3.7,3.7c0,0,0,0,0,0c0,0.6,0.2,1.3,0.5,1.8c0.1,0.2,0.2,0.3,0.3,0.4l2.3,2.3
			c0.4,0.4,0.6,0.9,0.6,1.4C6.5,5.7,5.4,6.9,4,7H3.8C2.4,7,1.2,8.1,1.2,9.6c0,0.7,0.3,1.4,0.8,1.9V12.3z"/>
	</g>
	<g id="b08d2398-aa74-4e58-ae16-fe4484344f52">
		
			<linearGradient id="_x30_6b044f4-b19f-4af7-8e9f-16565c3b9659_1_" gradientUnits="userSpaceOnUse" x1="1.2166" y1="16.5001" x2="72.1189" y2="16.5001">
			<stop  offset="0" style="stop-color:#8C72DD"/>
			<stop  offset="1" style="stop-color:#5D15EB"/>
		</linearGradient>
		<path id="_x30_6b044f4-b19f-4af7-8e9f-16565c3b9659" class="st0" d="M2,12.3l8,8c2.1,2.1,4.8,3.2,7.8,3.2h1.3c3,0,5.8,1.2,7.9,3.2
			l8.5,8.5c2.1,2.1,4.9,3.3,7.9,3.3h23.1c3.1,0,5.6-2.4,5.6-5.5c0-1.5-0.6-2.9-1.6-4l-5.9-5.9c-0.8-0.8-0.8-2.1,0-3c0,0,0,0,0,0
			l0.2-0.2c0.4-0.3,0.8-0.4,1.3-0.4c1.2,0,2.1-1,2-2.2c0-0.5-0.2-1-0.6-1.4l-12-12.1c-2.1-2.1-5-3.3-8-3.2H34.3
			c-2.7,0-5.3-1.1-7.2-3c-1.9-1.9-4.5-3-7.2-3H6.4c-2,0-3.7,1.7-3.7,3.7c0,0,0,0,0,0c0,0.6,0.2,1.3,0.5,1.8c0.1,0.2,0.2,0.3,0.3,0.4
			l2.3,2.3c0.4,0.4,0.6,0.9,0.6,1.4C6.5,5.7,5.4,6.9,4,7H3.8C2.4,7,1.2,8.1,1.2,9.6c0,0.7,0.3,1.4,0.8,1.9V12.3z"/>
	</g>
	
		<linearGradient id="_x32_7757c57-3efa-425b-b68f-2a99091ea45d_1_" gradientUnits="userSpaceOnUse" x1="24.2891" y1="16.5001" x2="95.5289" y2="16.5001">
		<stop  offset="0" style="stop-color:#EFA8A5"/>
		<stop  offset="1" style="stop-color:#FC5353"/>
	</linearGradient>
	<path id="_x32_7757c57-3efa-425b-b68f-2a99091ea45d" class="st1" d="M25.1,12.5l7.9,7.8c2,2.1,4.8,3.2,7.7,3.2h0.9
		c3,0,5.8,1.2,7.9,3.2l8.5,8.5c2.1,2.1,4.9,3.3,7.9,3.3h24c3.1,0,5.6-2.4,5.6-5.5c0-1.5-0.6-2.9-1.6-4L88,23.1c-0.8-0.8-0.8-2.1,0-3
		c0,0,0,0,0,0c0.1-0.1,0.1-0.1,0.2-0.2c0.4-0.3,0.8-0.4,1.3-0.4c1.2,0,2.1-1,2.1-2.2c0-0.5-0.2-1-0.6-1.4L78.8,3.8
		c-2.1-2.1-4.9-3.3-7.9-3.3H58.7c-2.7,0-5.3-1.1-7.2-3c-1.9-1.9-4.5-3-7.2-3H29.8c-2.2,0-3.9,1.8-3.9,3.9c0,0,0,0,0,0
		c0,0.6,0.1,1.1,0.4,1.6c0.1,0.3,0.4,0.6,0.6,0.9l2.4,2.4c0.3,0.3,0.5,0.8,0.6,1.2c0.2,1.6-0.9,3-2.5,3.2c0,0,0,0,0,0
		c-0.1,0-0.2,0-0.3,0c-1.5,0-2.8,1.2-2.8,2.7C24.3,11.2,24.6,11.9,25.1,12.5L25.1,12.5z"/>
</g>
</svg>
