<?xml version="1.0" encoding="utf-8"?>
<!-- Generator: Adobe Illustrator 22.0.0, SVG Export Plug-In . SVG Version: 6.00 Build 0)  -->
<svg version="1.1" id="Capa_1" xmlns="http://www.w3.org/2000/svg" xmlns:xlink="http://www.w3.org/1999/xlink" x="0px" y="0px"
	 viewBox="0 0 1082 947.8" style="enable-background:new 0 0 1082 947.8;" xml:space="preserve">
<style type="text/css">
	.st0{fill:url(#b_3_);}
	.st1{fill:none;}
	.st2{fill:url(#svg_4_1_);}
</style>
<g>
	<title>Layer 1</title>
	<g id="svg_1">
		<g id="svg_2">
			<linearGradient id="b_3_" gradientUnits="userSpaceOnUse" x1="74.7" y1="627.15" x2="1135" y2="627.15">
				<stop  offset="0" style="stop-color:#EFA8A5"/>
				<stop  offset="0.5265" style="stop-color:#FC5353"/>
			</linearGradient>
			<path id="b_2_" class="st0" d="M86.6,568.5l134.3,134.3c18.8,18.8,44.2,29.3,70.7,29.3h70.7c26.5,0,52,10.5,70.7,29.3l161,161
				c18.8,18.8,44.2,29.3,70.7,29.3h388.9c45,0,81.4-36.5,81.4-81.4c0-21.6-8.6-42.3-23.8-57.6l-86.4-86.4c-12-12-12-31.5,0-43.6
				c5.8-5.8,13.6-9,21.8-9c17,0,30.8-13.8,30.8-30.8c0-8.2-3.2-16-9-21.8L873,425.8c-18.8-18.8-44.2-29.3-70.7-29.3H567.9
				c-26.5,0-52-10.5-70.7-29.3l-35.3-35.3c-18.8-18.8-44.2-29.3-70.7-29.3H156.1c-31.8,0-57.5,25.8-57.5,57.5
				c0,15.3,6.1,29.9,16.8,40.7l28.8,28.8c15.9,15.9,15.9,41.6,0,57.5c-7.6,7.6-18,11.9-28.8,11.9c-22.5,0-40.7,18.2-40.7,40.7
				C74.7,550.5,79,560.9,86.6,568.5L86.6,568.5L86.6,568.5z"/>
		</g>
		<g id="svg_3">
			<path id="b_1_" class="st1" d="M86.6,568.5l134.3,134.3c18.8,18.8,44.2,29.3,70.7,29.3h70.7c26.5,0,52,10.5,70.7,29.3l161,161
				c18.8,18.8,44.2,29.3,70.7,29.3h388.9c45,0,81.4-36.5,81.4-81.4c0-21.6-8.6-42.3-23.8-57.6l-86.4-86.4c-12-12-12-31.5,0-43.6
				c5.8-5.8,13.6-9,21.8-9c17,0,30.8-13.8,30.8-30.8c0-8.2-3.2-16-9-21.8L873,425.8c-18.8-18.8-44.2-29.3-70.7-29.3H567.9
				c-26.5,0-52-10.5-70.7-29.3l-35.3-35.3c-18.8-18.8-44.2-29.3-70.7-29.3H156.1c-31.8,0-57.5,25.8-57.5,57.5
				c0,15.3,6.1,29.9,16.8,40.7l28.8,28.8c15.9,15.9,15.9,41.6,0,57.5c-7.6,7.6-18,11.9-28.8,11.9c-22.5,0-40.7,18.2-40.7,40.7
				C74.7,550.5,79,560.9,86.6,568.5L86.6,568.5L86.6,568.5z"/>
		</g>
		
			<linearGradient id="svg_4_1_" gradientUnits="userSpaceOnUse" x1="248.0008" y1="-9.694017e-02" x2="248.5828" y2="0.2936" gradientTransform="matrix(1060.322 0 0 649 -262499.1563 261.625)">
			<stop  offset="0" style="stop-color:#8C72DD"/>
			<stop  offset="1" style="stop-color:#5D15EB"/>
		</linearGradient>
		<path id="svg_4" class="st2" d="M224.6,261.5l134.3,134.3c18.8,18.8,44.2,29.3,70.7,29.3h70.7c26.5,0,52,10.5,70.7,29.3l161,161
			c18.8,18.8,44.2,29.3,70.7,29.3h388.9c45,0,81.4-36.5,81.4-81.4c0-21.6-8.6-42.3-23.8-57.6l-86.4-86.4c-12-12-12-31.5,0-43.6
			c5.8-5.8,13.6-9,21.8-9c17,0,30.8-13.8,30.8-30.8c0-8.2-3.2-16-9-21.8L1011,118.8c-18.8-18.8-44.2-29.3-70.7-29.3H705.9
			c-26.5,0-52-10.5-70.7-29.3l-35.3-35.3C581.2,6.2,555.7-4.3,529.2-4.3H294.1c-31.8,0-57.5,25.8-57.5,57.5
			c0,15.3,6.1,29.9,16.9,40.7l28.8,28.8c15.9,15.9,15.9,41.6,0,57.5c-7.6,7.6-18,11.9-28.8,11.9c-22.5,0-40.7,18.2-40.7,40.7
			C212.7,243.5,217,253.9,224.6,261.5L224.6,261.5L224.6,261.5z"/>
	</g>
</g>
</svg>
